<svg width="112" height="112" viewBox="0 0 112 112" fill="none" xmlns="http://www.w3.org/2000/svg">
<rect width="112" height="112" rx="16" fill="url(#paint0_radial_60_299)"/>
<path fill-rule="evenodd" clip-rule="evenodd" d="M75 37V75H37V37H75ZM52.994 46.5H49.2933L42.2672 65.5H45.6059L46.9324 61.7856H55.3432L56.6412 65.5H60.1811L52.994 46.5ZM66.1077 46.5H62.7823V65.5H66.1077V46.5ZM51.1156 49.6877L54.4279 59.1666H47.856L51.1156 49.6877ZM78.1667 65.5H84.5V71.8333H78.1667V65.5ZM40.1667 78.1667H46.5V84.5H40.1667V78.1667ZM52.8333 78.1667H59.1667V84.5H52.8333V78.1667ZM40.1667 27.5H46.5V33.8333H40.1667V27.5ZM65.5 78.1667H71.8333V84.5H65.5V78.1667ZM52.8333 27.5H59.1667V33.8333H52.8333V27.5ZM65.5 27.5H71.8333V33.8333H65.5V27.5ZM78.1667 52.8333H84.5V59.1667H78.1667V52.8333ZM27.5 65.5H33.8333V71.8333H27.5V65.5ZM78.1667 40.1667H84.5V46.5H78.1667V40.1667ZM27.5 52.8333H33.8333V59.1667H27.5V52.8333ZM27.5 40.1667H33.8333V46.5H27.5V40.1667Z" fill="black"/>
<rect x="0.5" y="0.5" width="111" height="111" rx="15.5" stroke="white" stroke-opacity="0.4"/>
<defs>
<radialGradient id="paint0_radial_60_299" cx="0" cy="0" r="1" gradientUnits="userSpaceOnUse" gradientTransform="translate(56.2319 112) rotate(-90) scale(112 151.24)">
<stop stop-color="#AE86FF"/>
<stop offset="1" stop-color="#6F58FE"/>
</radialGradient>
</defs>
</svg>
