<svg width="112" height="112" viewBox="0 0 112 112" fill="none" xmlns="http://www.w3.org/2000/svg">
<rect width="112" height="112" rx="16" fill="url(#paint0_radial_60_324)"/>
<path d="M46 56.0001L52.6575 63L66 49" stroke="black" stroke-width="6" stroke-linecap="round" stroke-linejoin="round"/>
<path d="M52.4768 29.2387C54.4081 27.5871 57.5709 27.5871 59.5302 29.2387L63.9525 33.0458C64.7922 33.7736 66.3596 34.3614 67.4792 34.3614H72.2374C75.2043 34.3614 77.6394 36.7968 77.6394 39.7641V44.5229C77.6394 45.6146 78.2272 47.2102 78.9549 48.05L82.7615 52.4728C84.4128 54.4043 84.4128 57.5675 82.7615 59.5271L78.9549 63.95C78.2272 64.7898 77.6394 66.3574 77.6394 67.4771V72.2359C77.6394 75.2032 75.2043 77.6386 72.2374 77.6386H67.4792C66.3876 77.6386 64.7922 78.2264 63.9525 78.9543L59.5302 82.7613C57.5989 84.4129 54.4361 84.4129 52.4768 82.7613L48.0545 78.9543C47.2148 78.2264 45.6474 77.6386 44.5278 77.6386H39.6856C36.7187 77.6386 34.2836 75.2032 34.2836 72.2359V67.4491C34.2836 66.3574 33.6959 64.7898 32.9961 63.95L29.2175 59.4991C27.5942 57.5675 27.5942 54.4323 29.2175 52.5008L32.9961 48.05C33.6959 47.2102 34.2836 45.6426 34.2836 44.5509V39.7361C34.2836 36.7688 36.7187 34.3334 39.6856 34.3334H44.5278C45.6194 34.3334 47.2148 33.7456 48.0545 33.0178L52.4768 29.2387Z" stroke="black" stroke-width="6" stroke-linecap="round" stroke-linejoin="round"/>
<rect x="0.5" y="0.5" width="111" height="111" rx="15.5" stroke="white" stroke-opacity="0.4"/>
<defs>
<radialGradient id="paint0_radial_60_324" cx="0" cy="0" r="1" gradientUnits="userSpaceOnUse" gradientTransform="translate(56.2319 112) rotate(-90) scale(112 151.24)">
<stop stop-color="#AE86FF"/>
<stop offset="1" stop-color="#6F58FE"/>
</radialGradient>
</defs>
</svg>
