<svg width="112" height="112" viewBox="0 0 112 112" fill="none" xmlns="http://www.w3.org/2000/svg">
<rect width="112" height="112" rx="16" fill="url(#paint0_radial_60_289)"/>
<path d="M85.1333 87.6667C86.02 87.6667 86.4633 87.6667 86.8022 87.4942C87.1001 87.3425 87.3424 87.1002 87.4941 86.8022C87.6667 86.4634 87.6667 86.0201 87.6667 85.1334V52.2001C87.6667 51.3134 87.6667 50.8701 87.4941 50.5312C87.3424 50.2333 87.1001 49.991 86.8022 49.8393C86.4633 49.6667 86.02 49.6667 85.1333 49.6667H77.5333C76.6467 49.6667 76.2033 49.6667 75.8645 49.8393C75.5665 49.991 75.3243 50.2333 75.1726 50.5312C75 50.8701 75 51.3134 75 52.2001V59.8001C75 60.6867 75 61.1301 74.8274 61.4689C74.6757 61.7669 74.4335 62.0091 74.1355 62.1608C73.7967 62.3334 73.3533 62.3334 72.4667 62.3334H64.8667C63.98 62.3334 63.5367 62.3334 63.1978 62.506C62.8998 62.6577 62.6576 62.8999 62.5059 63.1979C62.3333 63.5367 62.3333 63.9801 62.3333 64.8667V72.4668C62.3333 73.3534 62.3333 73.7967 62.1607 74.1356C62.0091 74.4336 61.7668 74.6758 61.4688 74.8275C61.13 75.0001 60.6867 75.0001 59.8 75.0001H52.2C51.3133 75.0001 50.87 75.0001 50.5312 75.1727C50.2332 75.3244 49.9909 75.5666 49.8392 75.8646C49.6667 76.2034 49.6667 76.6467 49.6667 77.5334V85.1334C49.6667 86.0201 49.6667 86.4634 49.8392 86.8022C49.9909 87.1002 50.2332 87.3425 50.5312 87.4942C50.87 87.6667 51.3133 87.6667 52.2 87.6667H85.1333Z" stroke="black" stroke-width="5" stroke-linecap="round" stroke-linejoin="round"/>
<path d="M49.6667 39.5333C49.6667 38.6466 49.6667 38.2032 49.8392 37.8645C49.9909 37.5666 50.2332 37.3244 50.5312 37.1726C50.87 37 51.3133 37 52.2 37H59.8C60.6867 37 61.13 37 61.4688 37.1726C61.7668 37.3244 62.0091 37.5666 62.1607 37.8645C62.3333 38.2032 62.3333 38.6466 62.3333 39.5333V47.1333C62.3333 48.0201 62.3333 48.4635 62.1607 48.8022C62.0091 49.1001 61.7668 49.3423 61.4688 49.4941C61.13 49.6667 60.6867 49.6667 59.8 49.6667H52.2C51.3133 49.6667 50.87 49.6667 50.5312 49.4941C50.2332 49.3423 49.9909 49.1001 49.8392 48.8022C49.6667 48.4635 49.6667 48.0201 49.6667 47.1333V39.5333Z" stroke="black" stroke-width="5" stroke-linecap="round" stroke-linejoin="round"/>
<path d="M27.5 58.5333C27.5 57.6467 27.5 57.2033 27.6726 56.8645C27.8244 56.5665 28.0666 56.3243 28.3645 56.1726C28.7032 56 29.1466 56 30.0333 56H37.6333C38.5201 56 38.9635 56 39.3022 56.1726C39.6001 56.3243 39.8423 56.5665 39.9941 56.8645C40.1667 57.2033 40.1667 57.6467 40.1667 58.5333V66.1333C40.1667 67.02 40.1667 67.4633 39.9941 67.8022C39.8423 68.1002 39.6001 68.3424 39.3022 68.4941C38.9635 68.6667 38.5201 68.6667 37.6333 68.6667H30.0333C29.1466 68.6667 28.7032 68.6667 28.3645 68.4941C28.0666 68.3424 27.8244 68.1002 27.6726 67.8022C27.5 67.4633 27.5 67.02 27.5 66.1333V58.5333Z" stroke="black" stroke-width="5" stroke-linecap="round" stroke-linejoin="round"/>
<path d="M24.3333 26.8666C24.3333 25.9798 24.3333 25.5365 24.5059 25.1978C24.6577 24.8998 24.8999 24.6576 25.1978 24.5058C25.5366 24.3333 25.9799 24.3333 26.8667 24.3333H34.4667C35.3534 24.3333 35.7968 24.3333 36.1355 24.5058C36.4334 24.6576 36.6756 24.8998 36.8274 25.1978C37 25.5365 37 25.9798 37 26.8666V34.4666C37 35.3533 37 35.7967 36.8274 36.1354C36.6756 36.4333 36.4334 36.6756 36.1355 36.8273C35.7968 36.9999 35.3534 36.9999 34.4667 36.9999H26.8667C25.9799 36.9999 25.5366 36.9999 25.1978 36.8273C24.8999 36.6756 24.6577 36.4333 24.5059 36.1354C24.3333 35.7967 24.3333 35.3533 24.3333 34.4666V26.8666Z" stroke="black" stroke-width="5" stroke-linecap="round" stroke-linejoin="round"/>
<rect x="0.5" y="0.5" width="111" height="111" rx="15.5" stroke="white" stroke-opacity="0.4"/>
<defs>
<radialGradient id="paint0_radial_60_289" cx="0" cy="0" r="1" gradientUnits="userSpaceOnUse" gradientTransform="translate(56.2319 112) rotate(-90) scale(112 151.24)">
<stop stop-color="#AE86FF"/>
<stop offset="1" stop-color="#6B68FF"/>
</radialGradient>
</defs>
</svg>
