<svg width="112" height="112" viewBox="0 0 112 112" fill="none" xmlns="http://www.w3.org/2000/svg">
<rect width="112" height="112" rx="16" fill="url(#paint0_radial_60_308)"/>
<path d="M58.4512 34.2341L45.1846 34.344C44.6937 34.3481 44.2217 34.5468 43.8717 34.8968L40.7033 38.0653L39.1113 36.4733C38.3948 35.7568 37.2235 35.7663 36.4948 36.4949C35.7663 37.2234 35.7566 38.3949 36.4731 39.1114L38.0651 40.7034L34.8967 43.8718C34.5469 44.2216 34.348 44.6939 34.3441 45.1846L34.2342 58.4511C34.2299 58.9418 34.4211 59.4108 34.7651 59.7549L60.1452 85.1349C61.9172 86.907 64.8247 86.8829 66.6264 85.0812L85.0813 66.6263C86.883 64.8246 86.907 61.9172 85.135 60.1451L59.7549 34.7651C59.4108 34.421 58.9418 34.2299 58.4512 34.2341ZM42.9105 45.5484L46.392 49.0299C47.1085 49.7464 48.28 49.7367 49.0085 49.0083C49.7371 48.2796 49.7467 47.1083 49.0302 46.3918L45.5464 42.908C46.2326 42.5892 46.9804 42.413 47.7548 42.4066C49.1718 42.3947 50.4991 42.9355 51.4926 43.929C53.5435 45.9799 53.5157 49.345 51.4305 51.4302C49.3451 53.5156 45.98 53.5435 43.929 51.4926C42.335 49.8985 42.0027 47.5124 42.9105 45.5484ZM69.7128 71.9765C70.0723 72.7043 69.9014 73.563 69.3492 74.1152C69.211 74.2535 69.0488 74.3724 68.8651 74.4655C64.0918 76.8824 58.4901 75.7687 55.0568 72.1057C54.5762 72.5182 53.9044 72.6825 53.2668 72.4748C52.3 72.1598 51.7847 71.1165 52.1158 70.1443L52.9365 67.7345C53.2678 66.7622 54.3196 66.2301 55.2864 66.5447C55.7633 66.7002 56.1298 67.0333 56.3395 67.4473C56.3852 67.5148 56.4282 67.5849 56.4653 67.66C58.4183 71.6137 63.2504 73.1883 67.2375 71.1695C68.1549 70.7053 69.2632 71.0664 69.7128 71.9765ZM54.9023 61.8858C54.8981 62.3966 54.6872 62.8611 54.3497 63.1986C54.0122 63.5361 53.5479 63.7471 53.037 63.7512C52.0152 63.7597 51.1937 62.9381 51.2023 61.9165C51.2468 56.5696 54.8753 52.0188 59.7823 50.5598C59.6534 49.9631 59.8226 49.3106 60.2917 48.8415C61.0203 48.1129 62.1916 48.1033 62.9081 48.8198L64.6844 50.5961C65.4009 51.3126 65.3913 52.4839 64.6627 53.2125C64.2547 53.6206 63.7077 53.8028 63.1796 53.7587C63.1269 53.7637 63.0742 53.7676 63.0203 53.7679C58.581 53.805 54.9391 57.4462 54.9023 61.8858ZM75.7784 65.3396C76.3769 65.5486 76.8467 66.0617 76.9662 66.7324C77.0774 67.3547 76.8611 67.9651 76.4409 68.3852C76.184 68.6422 75.8505 68.8283 75.469 68.9026L72.9751 69.3877C71.9692 69.5834 71.0083 68.9289 70.8295 67.9259C70.7542 67.5034 70.8309 67.0869 71.0187 66.7313C71.0691 66.6093 71.132 66.4904 71.2102 66.3772C73.7507 62.6953 72.8556 57.6818 69.2153 55.2016C68.3774 54.6307 68.1722 53.4807 68.7569 52.6334C69.3428 51.7859 70.495 51.5617 71.3331 52.1324C75.6762 55.0914 77.3402 60.5202 75.7784 65.3396Z" fill="black"/>
<rect x="0.5" y="0.5" width="111" height="111" rx="15.5" stroke="white" stroke-opacity="0.4"/>
<defs>
<radialGradient id="paint0_radial_60_308" cx="0" cy="0" r="1" gradientUnits="userSpaceOnUse" gradientTransform="translate(56.2319 112) rotate(-90) scale(112 151.24)">
<stop stop-color="#AE86FF"/>
<stop offset="1" stop-color="#6F58FE"/>
</radialGradient>
</defs>
</svg>
