<svg width="112" height="112" viewBox="0 0 112 112" fill="none" xmlns="http://www.w3.org/2000/svg">
<rect width="112" height="112" rx="16" fill="url(#paint0_radial_60_315)"/>
<path d="M72.625 84.4999H60.75C60.1201 84.4999 59.516 84.2497 59.0706 83.8043C58.6252 83.3589 58.375 82.7548 58.375 82.1249C58.375 80.2353 57.6243 78.423 56.2881 77.0868C54.9519 75.7506 53.1397 74.9999 51.25 74.9999C49.3603 74.9999 47.5481 75.7506 46.2119 77.0868C44.8757 78.423 44.125 80.2353 44.125 82.1249C44.125 82.7548 43.8748 83.3589 43.4294 83.8043C42.984 84.2497 42.3799 84.4999 41.75 84.4999H29.875C29.2451 84.4999 28.641 84.2497 28.1956 83.8043C27.7502 83.3589 27.5 82.7548 27.5 82.1249V70.2499C27.5 69.6201 27.7502 69.016 28.1956 68.5706C28.641 68.1252 29.2451 67.8749 29.875 67.8749C31.7647 67.8749 33.5769 67.1243 34.9131 65.7881C36.2493 64.4519 37 62.6396 37 60.7499C37 58.8603 36.2493 57.048 34.9131 55.7118C33.5769 54.3756 31.7647 53.6249 29.875 53.6249C29.2451 53.6249 28.641 53.3747 28.1956 52.9293C27.7502 52.4839 27.5 51.8798 27.5 51.2499V39.3749C27.5 38.7451 27.7502 38.141 28.1956 37.6956C28.641 37.2502 29.2451 36.9999 29.875 36.9999H39.6125C40.1576 34.3155 41.614 31.9021 43.7349 30.1685C45.8558 28.435 48.5108 27.488 51.25 27.488C53.9892 27.488 56.6442 28.435 58.7651 30.1685C60.886 31.9021 62.3424 34.3155 62.8875 36.9999H72.625C73.2549 36.9999 73.859 37.2502 74.3044 37.6956C74.7498 38.141 75 38.7451 75 39.3749V49.1124C77.6844 49.6575 80.0979 51.1139 81.8314 53.2348C83.5649 55.3557 84.5119 58.0107 84.5119 60.7499C84.5119 63.4892 83.5649 66.1442 81.8314 68.2651C80.0979 70.386 77.6844 71.8423 75 72.3874V82.1249C75 82.7548 74.7498 83.3589 74.3044 83.8043C73.859 84.2497 73.2549 84.4999 72.625 84.4999ZM62.8875 79.7499H70.25V70.2499C70.25 69.6201 70.5002 69.016 70.9456 68.5706C71.391 68.1252 71.9951 67.8749 72.625 67.8749C74.5147 67.8749 76.3269 67.1243 77.6631 65.7881C78.9993 64.4519 79.75 62.6396 79.75 60.7499C79.75 58.8603 78.9993 57.048 77.6631 55.7118C76.3269 54.3756 74.5147 53.6249 72.625 53.6249C71.9951 53.6249 71.391 53.3747 70.9456 52.9293C70.5002 52.4839 70.25 51.8798 70.25 51.2499V41.7499H60.75C60.1201 41.7499 59.516 41.4997 59.0706 41.0543C58.6252 40.6089 58.375 40.0048 58.375 39.3749C58.375 37.4853 57.6243 35.673 56.2881 34.3368C54.9519 33.0006 53.1397 32.2499 51.25 32.2499C49.3603 32.2499 47.5481 33.0006 46.2119 34.3368C44.8757 35.673 44.125 37.4853 44.125 39.3749C44.125 40.0048 43.8748 40.6089 43.4294 41.0543C42.984 41.4997 42.3799 41.7499 41.75 41.7499H32.25V49.1124C34.9344 49.6575 37.3479 51.1139 39.0814 53.2348C40.8149 55.3557 41.7619 58.0107 41.7619 60.7499C41.7619 63.4892 40.8149 66.1442 39.0814 68.2651C37.3479 70.386 34.9344 71.8423 32.25 72.3874V79.7499H39.6125C40.1576 77.0655 41.614 74.6521 43.7349 72.9185C45.8558 71.185 48.5108 70.238 51.25 70.238C53.9892 70.238 56.6442 71.185 58.7651 72.9185C60.886 74.6521 62.3424 77.0655 62.8875 79.7499Z" fill="black"/>
<path d="M79.75 61.1062C78.6575 66.2362 65.6425 66.7112 57.2825 66.7112C48.9225 66.7112 41.3462 60.9399 41.3462 58.0662H38.9712C39.2283 58.938 39.3642 59.841 39.375 60.7499C39.375 63.2695 38.3741 65.6858 36.5925 67.4674C34.8109 69.249 32.3946 70.2499 29.875 70.2499V82.1249H41.75C41.75 79.6054 42.7509 77.189 44.5325 75.4074C46.3141 73.6258 48.7304 72.6249 51.25 72.6249C53.7696 72.6249 56.1859 73.6258 57.9675 75.4074C59.7491 77.189 60.75 79.6054 60.75 82.1249H72.625V70.2499C74.0401 70.2419 75.4355 69.9179 76.7093 69.3016C77.9831 68.6852 79.1031 67.7921 79.9875 66.6874L79.75 61.1062Z" fill="black"/>
<rect x="0.5" y="0.5" width="111" height="111" rx="15.5" stroke="white" stroke-opacity="0.4"/>
<defs>
<radialGradient id="paint0_radial_60_315" cx="0" cy="0" r="1" gradientUnits="userSpaceOnUse" gradientTransform="translate(56.2319 112) rotate(-90) scale(112 151.24)">
<stop stop-color="#AE86FF"/>
<stop offset="1" stop-color="#6F58FE"/>
</radialGradient>
</defs>
</svg>
