<svg width="152" height="37" viewBox="0 0 152 37" fill="none" xmlns="http://www.w3.org/2000/svg">
<path d="M32.8816 18.2247C32.8816 18.6629 32.8661 19.0969 32.8349 19.5264C32.8038 19.9651 32.7571 20.3991 32.6949 20.8282C32.6317 21.2678 32.5526 21.7017 32.4575 22.13C32.3606 22.57 32.2477 23.0039 32.1188 23.4317C31.9872 23.873 31.8384 24.307 31.6722 24.7335C31.638 24.8233 31.6025 24.9125 31.5664 25.0017C31.4252 25.3518 31.2728 25.6964 31.1093 26.0353C30.8962 26.48 30.6656 26.914 30.4175 27.337C30.3636 27.4308 30.3077 27.5238 30.2511 27.6163C30.0393 27.9634 29.816 28.3042 29.581 28.6388C29.3745 28.9321 29.1594 29.2189 28.9358 29.4993C28.8175 29.6481 28.6967 29.7952 28.5735 29.9406C28.2692 30.2985 27.9516 30.6457 27.6206 30.982C27.5329 31.0687 27.4452 31.1555 27.3575 31.2423C27.0204 31.5695 26.6707 31.8839 26.3086 32.1854C26.1617 32.3074 26.0131 32.4269 25.8627 32.5441C25.5791 32.7654 25.2893 32.9782 24.9933 33.1826C24.6571 33.4147 24.3127 33.6358 23.9602 33.8458C23.8668 33.9018 23.7728 33.9571 23.6781 34.0105C23.2506 34.2557 22.8122 34.4839 22.3628 34.6952C22.0208 34.8567 21.6727 35.0085 21.3185 35.1509C21.2284 35.1867 21.1383 35.2218 21.0475 35.2556C20.6166 35.4188 20.1781 35.5661 19.7323 35.6976C19.3 35.8252 18.8616 35.9369 18.417 36.0328C17.9843 36.1265 17.5459 36.2049 17.1017 36.2678C16.6686 36.3298 16.2302 36.376 15.7865 36.4064C15.3524 36.4372 14.914 36.4526 14.4712 36.4526H10.5221C10.963 36.4517 11.403 36.4138 11.8374 36.3394C11.9117 36.327 11.986 36.3133 12.0597 36.2984C12.9077 36.1283 13.7215 35.8204 14.4679 35.3871C14.5994 35.3116 14.7264 35.2329 14.852 35.1496C15.1803 34.934 15.4916 34.694 15.7832 34.4316C15.9895 34.2471 16.1856 34.0515 16.3704 33.8458C16.6371 33.5519 16.8805 33.2381 17.0984 32.9073C17.1774 32.7882 17.253 32.6677 17.3247 32.5441C17.7955 31.7395 18.1163 30.8576 18.2717 29.9406C18.4172 29.0787 18.4172 28.1989 18.2717 27.337C18.1163 26.42 17.7955 25.5381 17.3247 24.7335C17.253 24.6098 17.1774 24.4894 17.0984 24.3703C16.8805 24.0394 16.6371 23.7257 16.3704 23.4317C16.1856 23.2261 15.9895 23.0305 15.7832 22.8459C15.4916 22.5843 15.1803 22.3449 14.852 22.13C14.7264 22.0467 14.5988 21.9679 14.4679 21.8924C13.2706 21.1993 11.9092 20.8321 10.5221 20.8282H0V0H14.4679C14.9103 0 15.3487 0.0154042 15.7832 0.0462126C16.2264 0.077021 16.6648 0.123234 17.0984 0.18485C17.5426 0.247335 17.981 0.325658 18.4137 0.419819C18.8583 0.515281 19.2967 0.627016 19.729 0.755023C20.1749 0.885199 20.6133 1.03252 21.0442 1.19697C21.135 1.23082 21.2251 1.26596 21.3152 1.30176C21.669 1.44149 22.0171 1.59336 22.3595 1.75738C22.8089 1.96827 23.2473 2.19651 23.6748 2.44211C23.7695 2.49548 23.8635 2.5508 23.9569 2.60678C24.3076 2.81636 24.652 3.03745 24.99 3.27003C25.2864 3.47441 25.5762 3.68724 25.8594 3.90854C26.0098 4.0257 26.1584 4.14546 26.3053 4.26783C26.667 4.56637 27.0177 4.87944 27.3575 5.20705C27.4478 5.29384 27.5366 5.38062 27.6239 5.46741C27.9544 5.80152 28.2721 6.14866 28.5768 6.50882C28.7 6.65375 28.8207 6.80084 28.9391 6.95011C29.1627 7.23086 29.3778 7.51768 29.5843 7.81058C29.8188 8.14296 30.0422 8.48381 30.2544 8.83311C30.3109 8.92554 30.3668 9.01862 30.4208 9.11234C30.6689 9.53542 30.8995 9.96934 31.1126 10.4141C31.2757 10.7526 31.428 11.0971 31.5696 11.4477C31.6058 11.5369 31.6413 11.626 31.6755 11.7159C31.8404 12.1424 31.9892 12.5763 32.1221 13.0176C32.251 13.445 32.3639 13.879 32.4607 14.3194C32.5554 14.7477 32.6346 15.1816 32.6981 15.6212C32.7608 16.0499 32.8075 16.4838 32.8382 16.9229C32.8672 17.3525 32.8816 17.7864 32.8816 18.2247Z" fill="#AE86FF"/>
<path d="M10.5879 33.195C13.1303 33.195 15.1914 31.1551 15.1914 28.6388C15.1914 26.1225 13.1303 24.0826 10.5879 24.0826C8.04552 24.0826 5.9845 26.1225 5.9845 28.6388C5.9845 31.1551 8.04552 33.195 10.5879 33.195Z" fill="white"/>
<path d="M42.186 30.2394V9.03931H48.7805C51.9669 9.03931 54.639 10.0545 56.7968 12.085C58.9546 14.1154 60.0335 16.6335 60.0335 19.6394C60.0335 22.6452 58.9546 25.1633 56.7968 27.1938C54.639 29.2242 51.9669 30.2394 48.7805 30.2394H42.186ZM45.7253 26.9847H48.7805C51.0392 26.9847 52.8744 26.288 54.286 24.8946C55.7179 23.5012 56.4338 21.7494 56.4338 19.6394C56.4338 17.5293 55.7179 15.7776 54.286 14.3841C52.8744 12.9907 51.0392 12.294 48.7805 12.294H45.7253V26.9847Z" fill="#F8F8F8"/>
<path d="M63.3577 30.2394V15.3098H66.6852V17.9672C66.9676 17.1312 67.4818 16.4544 68.228 15.9368C68.9943 15.4192 69.8111 15.1605 70.6782 15.1605C71.2026 15.1605 71.6362 15.2003 71.979 15.2799V18.654C71.495 18.4748 70.9404 18.3853 70.3152 18.3853C69.3069 18.3853 68.4498 18.7933 67.744 19.6095C67.0382 20.4057 66.6852 21.5205 66.6852 22.9537V30.2394H63.3577Z" fill="#F8F8F8"/>
<path d="M79.6892 36.48H76.029L79.2657 29.4332L72.762 15.3098H76.4222L81.0505 25.8799L85.709 15.3098H89.3995L79.6892 36.48Z" fill="#F8F8F8"/>
<path d="M95.0446 36.48H91.7171V15.3098H95.0446V17.3103C95.5085 16.6733 96.174 16.1359 97.0411 15.6979C97.9285 15.2401 98.8864 15.0112 99.9149 15.0112C101.972 15.0112 103.696 15.7676 105.088 17.2805C106.499 18.7933 107.205 20.6247 107.205 22.7746C107.205 24.9245 106.499 26.7558 105.088 28.2687C103.696 29.7816 101.972 30.538 99.9149 30.538C98.8864 30.538 97.9285 30.319 97.0411 29.8811C96.174 29.4233 95.5085 28.8758 95.0446 28.2388V36.48ZM99.3099 27.5521C100.621 27.5521 101.7 27.0942 102.547 26.1785C103.394 25.2629 103.817 24.1282 103.817 22.7746C103.817 21.421 103.394 20.2863 102.547 19.3706C101.7 18.4549 100.621 17.9971 99.3099 17.9971C97.9789 17.9971 96.8899 18.4549 96.0429 19.3706C95.1959 20.2863 94.7724 21.421 94.7724 22.7746C94.7724 24.1282 95.1959 25.2629 96.0429 26.1785C96.8899 27.0942 97.9789 27.5521 99.3099 27.5521Z" fill="#F8F8F8"/>
<path d="M116.863 30.3887C115.33 30.3887 114.08 29.9707 113.112 29.1346C112.164 28.2786 111.69 27.0445 111.69 25.4321V18.236H108.544V15.3098H111.69V11.1593H115.017V15.3098H119.343V18.236H115.017V24.8946C115.017 25.8103 115.219 26.4672 115.622 26.8653C116.026 27.2435 116.671 27.4326 117.558 27.4326C118.284 27.4326 118.879 27.3331 119.343 27.134V30.0602C118.617 30.2792 117.79 30.3887 116.863 30.3887Z" fill="#F8F8F8"/>
<path d="M134.755 28.2986C133.243 29.7915 131.367 30.538 129.129 30.538C126.89 30.538 125.005 29.7915 123.472 28.2986C121.959 26.7857 121.203 24.9444 121.203 22.7746C121.203 20.6048 121.959 18.7734 123.472 17.2805C125.005 15.7676 126.89 15.0112 129.129 15.0112C131.367 15.0112 133.243 15.7676 134.755 17.2805C136.288 18.7734 137.054 20.6048 137.054 22.7746C137.054 24.9444 136.288 26.7857 134.755 28.2986ZM129.129 27.4924C130.439 27.4924 131.518 27.0445 132.365 26.1487C133.233 25.233 133.666 24.1083 133.666 22.7746C133.666 21.4409 133.233 20.3261 132.365 19.4303C131.518 18.5147 130.439 18.0568 129.129 18.0568C127.798 18.0568 126.699 18.5147 125.831 19.4303C124.984 20.3261 124.561 21.4409 124.561 22.7746C124.561 24.1083 124.984 25.233 125.831 26.1487C126.699 27.0445 127.798 27.4924 129.129 27.4924Z" fill="#F8F8F8"/>
<path d="M139.053 32.867V30.2394H152V32.867H139.053Z" fill="#F8F8F8"/>
</svg>
